<?xml version="1.0" encoding="UTF-8"?><svg id="Capa_1" xmlns="http://www.w3.org/2000/svg" viewBox="0 0 180 180"><defs><style>.cls-1{fill:#000;stroke-width:0px;}</style></defs><path class="cls-1" d="M154.07,161.29c-.84-16.17-1.71-32.34-2.53-48.51-.83-16.42-1.62-32.83-2.46-49.25-.03-.56-.2-1.18-.49-1.66-2.45-4.13-4.96-8.23-7.43-12.35-.64-1.07-1.54-1.57-2.8-1.53-1.26.04-2.51,0-3.92,0,.57-2.43,1.09-4.67,1.61-6.91.54-2.34-.1-3.41-2.44-3.96-6.96-1.65-13.92-3.31-20.9-4.88-.99-.22-1.34-.69-1.59-1.58-1.46-5.16-4.46-9.2-8.88-12.24-2.93-2.02-6.25-2.98-9.67-3.68h-5.01c-.27.1-.52.23-.8.28-5.66.99-10.24,3.75-13.83,8.23-.43.53-1.22.98-1.89,1.07-4.47.6-8.96,1.09-13.44,1.62-4.48.52-8.96,1.02-13.44,1.58-2,.25-2.93,1.34-2.73,3.1.4,3.51.85,7.01,1.26,10.52.26,2.22.5,4.45.78,6.97-3.18-.86-4.2,1.32-5.39,3.35-2,3.43-4.1,6.8-6.12,10.22-.31.53-.57,1.17-.6,1.77-.71,13.62-1.38,27.24-2.07,40.87-.97,19.06-1.95,38.12-2.93,57.18-.17,3.24.57,4.03,3.82,4.03,40.05,0,80.09,0,120.14,0,.39,0,.79.02,1.18,0,1.56-.1,2.54-1.08,2.6-2.62.02-.54-.02-1.08-.05-1.62ZM133.27,53.06c1.15,0,2.27-.05,3.38.03.36.03.84.29,1.03.59,1.4,2.23,2.73,4.5,4.18,6.92h-10.35c.6-2.55,1.17-4.98,1.77-7.54ZM130.67,41.68c-1.5,6.4-2.97,12.68-4.45,19.02-4.77,0-9.42.02-14.07-.05-.34,0-.87-.66-.98-1.09-1.42-5.7-2.78-11.41-4.15-17.12-.71-2.97-1.6-3.51-4.59-2.79-.89.22-1.78.4-2.91.66.45-1.94.85-3.68,1.29-5.62,9.97,2.33,19.86,4.65,29.86,6.99ZM106.13,60.59h-38.28c-.54-2.21-1.1-4.51-1.69-6.96,12.09-2.9,24.06-5.78,36.19-8.7,1.27,5.28,2.51,10.4,3.77,15.65ZM105.63,30.53c-1.78-.39-3.4-.74-5.03-1.11-2.93-.67-3.78-.14-4.46,2.79-.57,2.48-1.29,4.93-1.7,7.44-.29,1.77-1.05,2.63-3.09,2.47-.26-2.11-.54-4.32-.8-6.53-.41-3.5-.8-7.01-1.23-10.51-.23-1.86-1.38-2.7-3.28-2.48-1.8.2-3.59.4-5.45.61,7.44-6.32,20.96-3.47,25.05,7.31ZM84.48,27.92c.62,5.22,1.22,10.31,1.85,15.56-.53.15-1.03.3-1.53.42-7.23,1.75-14.47,3.48-21.7,5.24-2.26.55-2.87,1.57-2.34,3.85.59,2.52,1.19,5.04,1.81,7.65h-12.41c-1.11-9.44-2.21-18.77-3.33-28.26,12.61-1.49,25.04-2.97,37.66-4.46ZM42.95,53.44c.12-.2.55-.4.71-.33.24.11.51.45.54.72.28,2.23.52,4.46.78,6.79h-6.36c1.47-2.45,2.88-4.83,4.33-7.18ZM31.6,160.37c1.61-31.47,3.22-62.86,4.84-94.32h107.61c1.61,31.46,3.22,62.84,4.84,94.32H31.6Z"/><path class="cls-1" d="M108.86,71.01c-3.26.18-6.1,2.6-6.89,5.88-.78,3.26.58,6.68,3.56,8.3,1.1.6,1.39,1.27,1.33,2.41-.08,1.42-.02,2.84-.02,4.27-.02,0-.04,0-.05,0,0,1.52.07,3.04-.01,4.56-.48,8.61-7.93,15.52-16.62,15.47-8.71-.05-16.06-7.01-16.43-15.65-.12-2.89,0-5.79-.09-8.68-.03-1.15.28-1.8,1.36-2.39,3.05-1.68,4.39-5.24,3.47-8.6-.89-3.24-3.92-5.55-7.3-5.57-3.41-.02-6.44,2.2-7.41,5.43-.99,3.32.28,6.97,3.3,8.66,1.25.7,1.46,1.48,1.49,2.76.09,4.06-.14,8.2.61,12.16,1.95,10.41,11.74,17.52,22.66,16.94,10.15-.55,18.98-8.91,19.94-19.13.34-3.55.2-7.15.23-10.73,0-.82.22-1.27,1-1.69,3.49-1.86,4.96-5.8,3.61-9.41-1.19-3.19-4.25-5.16-7.72-4.97ZM73.4,79.67c-2.19-1.38-2.64-1.38-4.57.03-.62-1.2-.28-2.22.67-3.01.92-.77,1.98-.82,2.99-.13,1.12.77,1.34,1.85.92,3.12ZM111.67,79.69c-1.98-1.37-2.65-1.4-4.52-.14-.57-1.14-.24-2.08.63-2.82.96-.82,2.07-.88,3.09-.12,1.04.78,1.4,1.82.8,3.09Z"/></svg>